Coordinates
version=1
nRows=15
nColumns=34
inDegrees=no

Units are S.I. units (second, meters, Newtons, ...)
If the header above contains a line with 'inDegrees', this indicates whether rotational values are in degrees (yes) or radians (no).

endheader
time	pelvis_tilt	pelvis_list	pelvis_rotation	pelvis_tx	pelvis_ty	pelvis_tz	hip_flexion_r	hip_adduction_r	hip_rotation_r	knee_angle_r	ankle_angle_r	subtalar_angle_r	mtp_angle_r	hip_flexion_l	hip_adduction_l	hip_rotation_l	knee_angle_l	ankle_angle_l	subtalar_angle_l	mtp_angle_l	lumbar_extension	lumbar_bending	lumbar_rotation	arm_flex_r	arm_add_r	arm_rot_r	elbow_flex_r	pro_sup_r	arm_flex_l	arm_add_l	arm_rot_l	elbow_flex_l	pro_sup_l
0.46	0.115576	-0.0359866	0.138859	0.250595	1.16622	-0.236544	-0.0827569	0.0818973	-0.313877	0.134567	0.0946761	0.114654	-0.0153416	0.345049	-0.0957773	-0.0784065	0.681807	-0.0491522	-0.132601	-0.104112	-0.41962	0.176177	-0.0260503	-0.146127	-0.232424	-0.274412	0.949632	2.06819	-0.184644	-0.17849	-0.0420133	0.920617	2.06648
0.47	0.115073	-0.0393052	0.13518	0.259001	1.16554	-0.235878	-0.092959	0.0874208	-0.312933	0.129272	0.102714	0.125102	-0.015429	0.350855	-0.0961708	-0.0821061	0.647313	-0.0437462	-0.109257	-0.103978	-0.42019	0.17529	-0.025047	-0.145007	-0.233152	-0.27493	0.953158	2.06748	-0.181395	-0.17798	-0.0430209	0.919648	2.06907
0.48	0.114618	-0.0427193	0.131408	0.267446	1.16476	-0.235203	-0.1032	0.0930918	-0.311017	0.124079	0.110836	0.134391	-0.0155164	0.356181	-0.0968477	-0.0865113	0.613635	-0.03894	-0.084178	-0.103844	-0.420759	0.174295	-0.0241603	-0.144158	-0.233811	-0.275107	0.956315	2.06661	-0.178224	-0.177629	-0.0441238	0.918412	2.07235
0.49	0.114146	-0.0461912	0.127538	0.275935	1.16388	-0.234519	-0.113375	0.0988096	-0.308254	0.119108	0.119078	0.142677	-0.0156039	0.36114	-0.0977756	-0.0917283	0.580959	-0.0348225	-0.0578095	-0.103711	-0.421246	0.173145	-0.0234198	-0.143585	-0.234395	-0.274927	0.959068	2.06539	-0.175153	-0.177424	-0.0453844	0.91685	2.07635
0.5	0.113595	-0.0496806	0.123581	0.284475	1.1629	-0.23383	-0.123374	0.104463	-0.304859	0.11449	0.127475	0.150196	-0.0156913	0.365817	-0.0989017	-0.0978213	0.549393	-0.0314463	-0.0306465	-0.103577	-0.421575	0.171801	-0.0228637	-0.143285	-0.234901	-0.274385	0.961386	2.06365	-0.172195	-0.17734	-0.0468645	0.914931	2.08103
0.51	0.112915	-0.0531467	0.11956	0.29307	1.16181	-0.233139	-0.133096	0.109942	-0.3011	0.110351	0.136055	0.157215	-0.0157787	0.370265	-0.100155	-0.104798	0.518961	-0.0288182	-0.00317463	-0.103443	-0.42169	0.170234	-0.0225357	-0.143253	-0.235326	-0.273478	0.963237	2.06131	-0.169354	-0.17734	-0.0486169	0.91267	2.08629
0.52	0.112074	-0.0565496	0.115515	0.301722	1.16064	-0.232455	-0.142466	0.115151	-0.297258	0.106802	0.14483	0.163974	-0.0158661	0.374489	-0.10145	-0.112604	0.489611	-0.0268998	0.0241705	-0.103309	-0.421564	0.168424	-0.0224795	-0.14348	-0.235669	-0.272213	0.964587	2.05839	-0.166621	-0.177382	-0.0506802	0.910125	2.0919
0.53	0.11107	-0.0598502	0.111492	0.310435	1.15937	-0.231784	-0.151444	0.120013	-0.293579	0.103921	0.153792	0.170642	-0.0159535	0.378444	-0.102691	-0.121129	0.461222	-0.0256152	0.0510202	-0.103175	-0.421204	0.166356	-0.0227333	-0.143951	-0.235928	-0.270599	0.965405	2.05505	-0.163983	-0.177423	-0.0530787	0.907398	2.09753
0.54	0.109928	-0.0630078	0.107536	0.319209	1.15803	-0.231135	-0.160034	0.124471	-0.290239	0.101752	0.162907	0.177288	-0.0160408	0.382034	-0.103778	-0.130219	0.433624	-0.0248615	0.0770716	-0.103042	-0.420653	0.164013	-0.0233237	-0.144651	-0.236101	-0.268653	0.965656	2.05149	-0.161415	-0.177425	-0.0558249	0.904606	2.10274
0.55	0.108697	-0.0659793	0.103681	0.328045	1.15663	-0.23051	-0.168279	0.128487	-0.28733	0.100298	0.172126	0.183884	-0.0161282	0.385119	-0.104607	-0.13969	0.406612	-0.0245182	0.102075	-0.102908	-0.419988	0.161371	-0.0242608	-0.145565	-0.236188	-0.266395	0.965313	2.04799	-0.15889	-0.177354	-0.0589232	0.901864	2.1071
0.56	0.107444	-0.0687186	0.0999457	0.336946	1.15519	-0.229914	-0.176258	0.132034	-0.284863	0.0995317	0.181384	0.190333	-0.0162155	0.387531	-0.105075	-0.149349	0.379973	-0.0244552	0.125825	-0.102774	-0.419309	0.158396	-0.0255363	-0.146675	-0.236187	-0.263848	0.964355	2.0448	-0.156375	-0.177188	-0.0623735	0.899254	2.11021
0.57	0.10624	-0.0711786	0.0963246	0.345915	1.15372	-0.229347	-0.184063	0.135091	-0.282795	0.0994016	0.190614	0.196518	-0.0163028	0.389096	-0.105092	-0.159008	0.353507	-0.0245408	0.148159	-0.10264	-0.418723	0.155041	-0.0271236	-0.147969	-0.236099	-0.261034	0.962769	2.04215	-0.15384	-0.176916	-0.0661722	0.896805	2.11181
0.58	0.10515	-0.0733165	0.0927926	0.354957	1.15224	-0.228811	-0.191789	0.13764	-0.28106	0.0998481	0.199748	0.202352	-0.0163902	0.389658	-0.104585	-0.168497	0.327057	-0.0246488	0.168967	-0.102507	-0.418328	0.151258	-0.0289815	-0.149434	-0.235928	-0.257972	0.960552	2.04019	-0.151259	-0.176541	-0.0703134	0.894486	2.11184
0.59	0.104222	-0.0750996	0.0893082	0.364075	1.15077	-0.228303	-0.199512	0.139666	-0.279601	0.100815	0.208727	0.207812	-0.0164775	0.389103	-0.103507	-0.177676	0.300522	-0.024667	0.188215	-0.102373	-0.418199	0.147002	-0.0310596	-0.151063	-0.235679	-0.254673	0.957705	2.03904	-0.148614	-0.176076	-0.0747889	0.89221	2.11043
0.6	0.103483	-0.0765111	0.0858206	0.373275	1.14931	-0.227819	-0.207286	0.14116	-0.278383	0.102253	0.217495	0.212954	-0.0165647	0.387373	-0.101851	-0.186439	0.273876	-0.0245048	0.205962	-0.10224	-0.418378	0.142242	-0.0333047	-0.152851	-0.235362	-0.251138	0.95423	2.03877	-0.145897	-0.175545	-0.0795877	0.889855	2.10791
